<svg width="814" height="264" viewBox="0 0 814 264" fill="none" xmlns="http://www.w3.org/2000/svg">
<g filter="url(#filter0_dd)">
<rect x="7" y="3" width="800" height="250" rx="20" fill="white"/>
<rect x="5.5" y="1.5" width="803" height="253" rx="21.5" stroke="black" stroke-width="3"/>
</g>
<path d="M607 3H787C798.046 3 807 11.9543 807 23V233C807 244.046 798.046 253 787 253H607V3Z" fill="#00852E"/>
<path d="M646.252 139L641.527 132.175H641.247H636.312V139H630.642V114.5H641.247C643.417 114.5 645.296 114.862 646.882 115.585C648.492 116.308 649.729 117.335 650.592 118.665C651.456 119.995 651.887 121.57 651.887 123.39C651.887 125.21 651.444 126.785 650.557 128.115C649.694 129.422 648.457 130.425 646.847 131.125L652.342 139H646.252ZM646.147 123.39C646.147 122.013 645.704 120.963 644.817 120.24C643.931 119.493 642.636 119.12 640.932 119.12H636.312V127.66H640.932C642.636 127.66 643.931 127.287 644.817 126.54C645.704 125.793 646.147 124.743 646.147 123.39ZM675.35 134.45V139H656.38V114.5H674.895V119.05H662.015V124.37H673.39V128.78H662.015V134.45H675.35ZM679.861 114.5H690.991C693.651 114.5 695.996 115.013 698.026 116.04C700.079 117.043 701.666 118.467 702.786 120.31C703.929 122.153 704.501 124.3 704.501 126.75C704.501 129.2 703.929 131.347 702.786 133.19C701.666 135.033 700.079 136.468 698.026 137.495C695.996 138.498 693.651 139 690.991 139H679.861V114.5ZM690.711 134.345C693.161 134.345 695.109 133.668 696.556 132.315C698.026 130.938 698.761 129.083 698.761 126.75C698.761 124.417 698.026 122.573 696.556 121.22C695.109 119.843 693.161 119.155 690.711 119.155H685.531V134.345H690.711ZM727.747 134.45V139H708.777V114.5H727.292V119.05H714.412V124.37H725.787V128.78H714.412V134.45H727.747ZM751.229 134.45V139H732.259V114.5H750.774V119.05H737.894V124.37H749.269V128.78H737.894V134.45H751.229ZM778.035 139L778 124.3L770.79 136.41H768.235L761.06 124.615V139H755.74V114.5H760.43L769.6 129.725L778.63 114.5H783.285L783.355 139H778.035Z" fill="white"/>
<path d="M263.963 98C263.633 92.2967 256.85 87.84 243.283 84.44C243.74 83.44 243.997 82.4 244 81.32V58H243.943C242.75 38.5733 163.143 38 154 38C144.857 38 65.25 38.5733 64.0567 58H64V58.4333V81.33C64.0167 87.6633 72.19 92.62 84.35 96.31C84.1833 96.8633 84.0833 97.4267 84.05 98H84V98.4333V121.29C70.9 124.663 64.3567 129.057 64.0333 134.667H64V135.1V157.997C64.01 162.407 67.9867 166.147 74.4933 169.263C74.2467 169.94 74.0933 170.63 74.05 171.337H74V171.77V194.667C74.0267 205.753 98.99 212.637 126.727 215.85C126.93 215.89 127.117 215.973 127.333 215.973C127.397 215.973 127.45 215.94 127.513 215.937C132.86 216.54 138.293 217.01 143.67 217.347C143.783 217.36 143.883 217.413 144 217.413C144.063 217.413 144.113 217.38 144.173 217.377C151 217.79 157.717 218 164 218C170.283 218 177 217.79 183.827 217.373C183.887 217.377 183.94 217.41 184 217.41C184.117 217.41 184.217 217.353 184.33 217.343C189.707 217.007 195.14 216.54 200.487 215.933C200.55 215.933 200.603 215.967 200.667 215.967C200.883 215.967 201.07 215.883 201.273 215.843C229.01 212.63 253.97 205.743 254 194.653V171.333H253.947C253.713 167.247 250.23 163.837 243.35 160.987C243.77 160.023 244 159.023 244 157.987V136.2C255.967 132.52 263.983 127.597 264 121.32V98H263.963ZM236.973 159.07L235.837 160.067C234.087 161.61 231.17 163.167 227.333 164.667V148.773C231.297 147.393 234.67 145.863 237.333 144.187V157.98C237.333 158.323 237.207 158.69 236.973 159.07ZM162.42 174.56C161.933 174.573 161.443 174.58 160.953 174.59C159.763 174.613 158.543 174.62 157.337 174.63V157.98C158.253 157.97 159.17 157.957 160.087 157.94C160.263 157.937 160.44 157.933 160.617 157.93C163.973 157.867 167.33 157.763 170.67 157.61V174.253C169.957 174.29 169.24 174.323 168.517 174.353C166.51 174.443 164.483 174.51 162.42 174.56ZM147.863 174.607C146.337 174.58 144.817 174.543 143.307 174.497C143.12 174.49 142.933 174.483 142.747 174.477C140.93 174.417 139.127 174.34 137.337 174.253V157.613C140.677 157.77 144.033 157.873 147.39 157.933C147.567 157.937 147.743 157.94 147.917 157.943C148.833 157.96 149.75 157.973 150.667 157.983V174.643C150.02 174.637 149.373 174.637 148.73 174.627C148.437 174.62 148.153 174.61 147.863 174.607ZM87.6567 167.007C87.5467 166.973 87.4433 166.943 87.3333 166.913V150.81C90.4467 151.65 93.7933 152.417 97.3333 153.113V169.383C94.2733 168.733 91.45 168.05 88.88 167.35C88.4733 167.233 88.0533 167.123 87.6567 167.007ZM157.917 194.61C158.833 194.627 159.75 194.64 160.667 194.65V211.313C156.06 211.27 151.613 211.137 147.333 210.927V194.283C150.673 194.44 154.03 194.543 157.387 194.603C157.563 194.603 157.74 194.607 157.917 194.61ZM170.613 194.6C173.97 194.537 177.327 194.433 180.667 194.28V210.923C176.387 211.133 171.94 211.267 167.333 211.31V194.647C168.25 194.637 169.167 194.623 170.083 194.607C170.26 194.607 170.437 194.603 170.613 194.6ZM197.333 193.093V209.647C194.13 209.983 190.797 210.28 187.333 210.523V193.9C190.713 193.68 194.053 193.41 197.333 193.093ZM204 192.373C207.437 191.96 210.773 191.49 214 190.967V207.333C210.86 207.887 207.523 208.397 204 208.86V192.373ZM220.667 189.777C224.207 189.08 227.553 188.313 230.667 187.473V203.577C227.697 204.433 224.353 205.263 220.667 206.047V189.777ZM107.333 189.777V206.047C103.647 205.263 100.303 204.433 97.3333 203.577V187.473C100.447 188.313 103.793 189.083 107.333 189.777ZM114 190.97C117.227 191.493 120.563 191.963 124 192.377V208.863C120.477 208.4 117.14 207.89 114 207.337V190.97ZM130.667 193.093C133.947 193.41 137.287 193.68 140.667 193.903V210.527C137.203 210.283 133.87 209.987 130.667 209.65V193.093ZM122.397 173.16C122.057 173.127 121.72 173.09 121.383 173.057C121.143 173.033 120.907 173.003 120.667 172.98V156.43C123.947 156.747 127.287 157.017 130.667 157.24V173.85C127.867 173.65 125.1 173.423 122.397 173.16ZM114 155.707V172.193C110.477 171.73 107.14 171.22 104 170.667V154.3C107.227 154.823 110.563 155.297 114 155.707ZM179.553 173.693C178.82 173.75 178.08 173.807 177.333 173.86V157.237C180.713 157.013 184.053 156.747 187.333 156.427V172.98C185.273 173.197 183.167 173.4 181.003 173.577C180.52 173.62 180.037 173.657 179.553 173.693ZM194 172.193V155.707C197.437 155.293 200.773 154.823 204 154.3V170.667C200.86 171.22 197.523 171.733 194 172.193ZM210.667 153.11C214.207 152.413 217.553 151.647 220.667 150.807V166.91C217.697 167.767 214.353 168.597 210.667 169.38V153.11ZM165.083 137.883C162.577 137.82 160.127 137.723 157.72 137.607C157.59 137.6 157.46 137.593 157.333 137.59V120.947C160.673 121.103 164.03 121.207 167.387 121.267C167.563 121.27 167.74 121.273 167.913 121.277C168.83 121.293 169.747 121.307 170.663 121.317V137.96C169.04 137.943 167.403 137.937 165.82 137.9C165.577 137.893 165.327 137.89 165.083 137.883ZM87.3333 90.2467V74.1433C90.4467 74.9833 93.7933 75.75 97.3333 76.4467V92.7167C96.9233 92.63 96.5 92.5433 96.1 92.4567C94.3267 92.0667 92.5967 91.66 90.9433 91.23C89.6833 90.9067 88.4867 90.5767 87.3333 90.2467ZM147.917 81.2767C148.833 81.2933 149.75 81.3067 150.667 81.3167V97.96C146.18 97.9167 141.72 97.8 137.333 97.58V80.95C140.673 81.1067 144.03 81.21 147.387 81.27C147.563 81.27 147.74 81.2733 147.917 81.2767ZM160.613 81.2667C163.97 81.2033 167.327 81.1 170.667 80.9467V97.5767C170.1 97.6033 169.557 97.6433 168.987 97.67C168.94 97.6733 168.893 97.6733 168.843 97.6767C166.607 97.7767 164.327 97.85 162.017 97.9033C161.657 97.9133 161.297 97.9167 160.937 97.9267C159.75 97.95 158.537 97.9533 157.333 97.9667V81.3167C158.25 81.3067 159.167 81.2933 160.083 81.2767C160.26 81.2733 160.437 81.27 160.613 81.2667ZM236.57 82.94L236.477 82.92L235.263 83.8633C233.503 85.2333 230.8 86.62 227.333 87.96V72.1033C231.297 70.7233 234.67 69.1933 237.333 67.5167V81.31C237.333 81.8167 237.067 82.3633 236.57 82.94ZM194 95.5067V79.04C197.437 78.6267 200.773 78.1567 204 77.6333V93.9733C200.84 94.5333 197.513 95.0467 194 95.5067ZM210.667 92.69V76.4467C214.207 75.75 217.553 74.9833 220.667 74.1433V90.21C217.68 91.08 214.317 91.91 210.667 92.69ZM187.333 79.76V96.2933C184.113 96.6333 180.78 96.93 177.333 97.1767V80.57C180.713 80.3467 184.053 80.0767 187.333 79.76ZM120.667 96.3V79.76C123.947 80.0767 127.287 80.3467 130.667 80.57V97.1633C127.273 96.92 123.927 96.6433 120.667 96.3ZM114 79.04V95.51C113.34 95.4233 112.653 95.3533 112 95.2633C111.573 95.2033 111.167 95.14 110.747 95.08C108.82 94.8033 106.937 94.5067 105.09 94.1967C104.72 94.1333 104.363 94.0667 104 94.0033V77.6367C107.227 78.1567 110.563 78.63 114 79.04ZM149.84 137.13C149.39 137.097 148.937 137.063 148.49 137.03C146.357 136.863 144.273 136.68 142.24 136.477C141.803 136.433 141.367 136.387 140.933 136.343C140.843 136.333 140.757 136.32 140.667 136.313V119.76C143.947 120.077 147.287 120.347 150.667 120.57V137.183C150.397 137.163 150.11 137.15 149.84 137.13ZM127.817 134.64C126.497 134.43 125.257 134.203 124 133.983V117.637C127.227 118.16 130.563 118.63 134 119.043V135.53C131.96 135.26 129.963 134.98 128.047 134.68C127.97 134.663 127.893 134.65 127.817 134.64ZM117.333 116.443V132.687C113.65 131.897 110.31 131.057 107.333 130.183V114.14C110.447 114.98 113.793 115.75 117.333 116.443ZM100.667 112.103V127.94C95.4267 125.917 92.0467 123.85 90.9467 122.01L90.7233 121.637C90.7033 121.533 90.67 121.423 90.6667 121.32V107.517C93.33 109.193 96.7033 110.723 100.667 112.103ZM180.613 121.267C183.97 121.203 187.327 121.1 190.667 120.947V137.573C186.287 137.79 181.833 137.91 177.333 137.957V121.317C178.25 121.307 179.167 121.293 180.083 121.277C180.26 121.273 180.437 121.27 180.613 121.267ZM223.69 134.057C222.227 134.31 220.75 134.56 219.233 134.79C218.363 134.923 217.473 135.05 216.58 135.177C215.737 135.297 214.86 135.4 214.003 135.51V119.04C217.44 118.627 220.777 118.157 224.003 117.633V134C223.897 134.02 223.793 134.04 223.69 134.057ZM201.12 136.903C199.877 137.007 198.593 137.073 197.333 137.163V120.57C200.713 120.347 204.053 120.08 207.333 119.76V136.297C205.397 136.5 203.463 136.703 201.473 136.87C201.353 136.88 201.24 136.893 201.12 136.903ZM239.213 130.653C237.553 131.117 235.797 131.55 234.003 131.973C233.173 132.167 232.327 132.36 231.46 132.547C231.203 132.603 230.93 132.653 230.67 132.71V116.447C234.21 115.75 237.557 114.983 240.67 114.143V130.247C240.19 130.38 239.707 130.517 239.213 130.653ZM257.297 98.2167C256.99 100.48 251.86 103.49 242.703 106.32C230.91 109.963 212.457 113.3 189.07 114.333C187.873 114.383 186.68 114.433 185.46 114.473C184.463 114.507 183.463 114.537 182.447 114.563C179.687 114.623 176.887 114.667 174 114.667C171.113 114.667 168.313 114.623 165.553 114.56C164.54 114.537 163.54 114.503 162.54 114.47C161.317 114.433 160.123 114.38 158.93 114.33C135.543 113.297 117.087 109.96 105.297 106.317C96.2133 103.51 91.0933 100.523 90.7133 98.27C90.73 98.2067 90.73 98.1533 90.77 98.0733C90.9967 98.13 91.25 98.1767 91.48 98.2333C92.7833 98.5433 94.12 98.8433 95.48 99.13C102.103 100.557 109.443 101.727 117.263 102.62C117.29 102.62 117.31 102.633 117.333 102.633C117.34 102.633 117.347 102.63 117.35 102.63C122.677 103.237 128.203 103.713 133.877 104.05C133.92 104.05 133.957 104.073 134 104.073C134.023 104.073 134.04 104.06 134.063 104.06C138.147 104.3 142.283 104.477 146.47 104.57C149.033 104.633 151.55 104.667 154 104.667C155.75 104.667 157.543 104.647 159.353 104.613C183.573 104.24 206.02 101.36 221.64 96.8967C222.36 96.6933 223.063 96.4833 223.757 96.2733C224.18 96.1433 224.613 96.0167 225.023 95.8867C226.23 95.5 227.387 95.1033 228.503 94.69C228.697 94.6167 228.88 94.5433 229.073 94.47C230.017 94.1133 230.923 93.7433 231.79 93.3667C232.04 93.2567 232.297 93.15 232.54 93.04C233.463 92.6233 234.357 92.1967 235.183 91.7533C235.557 91.5567 235.88 91.3533 236.23 91.1533C236.63 90.9233 237.03 90.69 237.4 90.4533C237.61 90.32 237.86 90.1933 238.06 90.06C252.983 93.2967 256.917 96.8367 257.297 98.2167ZM154 44.6667C208.963 44.6667 236.763 53.32 237.283 58.2867C236.88 60.54 231.763 63.5167 222.703 66.3167C210.91 69.96 192.457 73.2967 169.07 74.33C167.873 74.38 166.68 74.43 165.46 74.47C164.463 74.5033 163.463 74.5333 162.447 74.56C159.687 74.6233 156.887 74.6667 154 74.6667C151.113 74.6667 148.313 74.6233 145.553 74.56C144.54 74.5367 143.54 74.5033 142.54 74.47C141.317 74.4333 140.123 74.38 138.93 74.33C115.543 73.2967 97.0867 69.96 85.2967 66.3167C76.2333 63.5167 71.12 60.54 70.7167 58.2867C71.2367 53.32 99.0367 44.6667 154 44.6667ZM70.6667 81.32V67.5167C73.33 69.1933 76.7033 70.7233 80.6667 72.1033V88.0633C74.1833 85.6333 70.6733 83.1967 70.6667 81.32ZM86.8133 127.45C86.8633 127.503 86.94 127.55 86.99 127.603C91.5533 132.21 101.003 135.83 112.767 138.53C113.037 138.593 113.323 138.653 113.597 138.717C114.46 138.91 115.337 139.1 116.223 139.283C127.027 141.583 139.923 143.247 153.973 144.07C153.983 144.07 153.99 144.073 153.997 144.073C154.003 144.073 154.007 144.07 154.01 144.07C158.523 144.333 163.14 144.517 167.853 144.597C169.94 144.64 171.993 144.667 174 144.667C176.3 144.667 178.66 144.64 181.06 144.583C185.42 144.493 189.717 144.313 193.953 144.067C193.97 144.067 193.983 144.077 194 144.077C194.03 144.077 194.053 144.06 194.083 144.06C208.17 143.23 221.387 141.55 232.563 139.133C230.143 140.4 226.83 141.71 222.703 142.987C210.253 146.833 190.37 150.337 165.1 151.15C164.35 151.173 163.61 151.2 162.85 151.22C162.033 151.24 161.203 151.253 160.373 151.27C158.277 151.303 156.167 151.333 154 151.333C151.113 151.333 148.313 151.29 145.553 151.227C144.54 151.203 143.54 151.17 142.54 151.137C141.317 151.1 140.123 151.047 138.93 150.997C115.543 149.963 97.0867 146.627 85.2967 142.983C76.13 140.15 71 137.137 70.7033 134.873C71.0733 133.62 74.4433 130.483 86.8133 127.45ZM70.6667 157.987V144.183C73.33 145.86 76.7033 147.39 80.6667 148.77V164.667L78.7633 163.927L78.7233 163.967C73.49 161.797 70.6733 159.667 70.6667 157.987ZM80.6667 194.653V180.85C83.33 182.527 86.7033 184.057 90.6667 185.437V201.397C84.1833 198.967 80.6733 196.53 80.6667 194.653ZM237.333 201.397V185.44C241.297 184.06 244.67 182.53 247.333 180.853V194.647C247.33 196.523 243.817 198.963 237.333 201.397ZM247.29 171.59C246.927 173.847 241.807 176.84 232.703 179.653C220.91 183.297 202.457 186.633 179.07 187.667C177.873 187.717 176.68 187.767 175.46 187.807C174.463 187.84 173.463 187.87 172.447 187.897C169.687 187.957 166.887 188 164 188C161.113 188 158.31 187.957 155.547 187.893C154.543 187.87 153.553 187.837 152.563 187.803C151.333 187.763 150.133 187.713 148.93 187.663C125.543 186.63 107.09 183.293 95.2967 179.65C86.48 176.927 81.3867 174.033 80.7467 171.8C81.74 172.147 82.77 172.483 83.8267 172.813C83.9333 172.847 84.04 172.88 84.1467 172.91C85.0467 173.187 85.9667 173.453 86.91 173.713C87.2667 173.813 87.6267 173.913 87.99 174.01C88.5233 174.153 89.07 174.29 89.6167 174.43C101.757 177.54 117.253 179.743 133.983 180.733C133.99 180.733 133.993 180.737 134 180.737C134.003 180.737 134.007 180.733 134.01 180.733C139.177 181.04 144.453 181.23 149.787 181.293C151.207 181.32 152.617 181.333 154 181.333C155.837 181.333 157.717 181.31 159.62 181.277C164.483 181.197 169.283 181.017 173.977 180.737C173.987 180.737 173.993 180.743 174.003 180.743C174.02 180.743 174.03 180.733 174.047 180.733C179.763 180.39 185.297 179.9 190.613 179.29C190.633 179.29 190.65 179.3 190.67 179.3C190.743 179.3 190.803 179.263 190.877 179.257C196.797 178.573 202.41 177.733 207.62 176.757C208.693 176.56 209.75 176.357 210.797 176.147C211.03 176.1 211.263 176.053 211.497 176.003C221.34 173.983 229.86 171.367 235.707 168.123C236.027 167.95 236.327 167.77 236.63 167.593C237 167.373 237.353 167.15 237.697 166.923C238.017 166.717 238.387 166.517 238.68 166.307C245.26 168.653 247.073 170.753 247.29 171.59ZM247.333 128.063V112.107C251.297 110.727 254.67 109.197 257.333 107.52V121.313C257.33 123.19 253.817 125.63 247.333 128.063Z" fill="#00852E"/>
<path d="M420.088 139.5C420.088 144.967 418.088 149.667 414.088 153.6C410.088 157.467 404.321 159.867 396.788 160.8V172H386.788V161.1C381.855 160.833 377.155 159.967 372.688 158.5C368.221 157.033 364.621 155.233 361.888 153.1L367.388 140.9C369.921 142.767 372.888 144.333 376.288 145.6C379.688 146.867 383.188 147.667 386.788 148V131.3C382.055 130.167 378.055 128.9 374.788 127.5C371.521 126.1 368.788 124.067 366.588 121.4C364.388 118.667 363.288 115.067 363.288 110.6C363.288 105.067 365.288 100.333 369.288 96.4C373.355 92.4 379.188 89.9667 386.788 89.1V78H396.788V88.9C404.988 89.5667 411.755 91.6 417.088 95L412.088 107.3C407.088 104.433 401.988 102.7 396.788 102.1V119.1C401.455 120.167 405.388 121.4 408.588 122.8C411.855 124.133 414.588 126.167 416.788 128.9C418.988 131.567 420.088 135.1 420.088 139.5ZM379.388 109.8C379.388 111.467 380.021 112.833 381.288 113.9C382.555 114.967 384.388 115.867 386.788 116.6V102.4C384.255 103 382.388 103.967 381.188 105.3C379.988 106.567 379.388 108.067 379.388 109.8ZM396.788 147.6C399.188 147.067 400.988 146.2 402.188 145C403.388 143.8 403.988 142.367 403.988 140.7C403.988 139.033 403.355 137.667 402.088 136.6C400.888 135.533 399.121 134.6 396.788 133.8V147.6ZM452.781 90V160H436.581V103H422.581V90H452.781ZM494.941 161.2C489.141 161.2 483.974 159.767 479.441 156.9C474.908 154.033 471.341 149.9 468.741 144.5C466.208 139.033 464.941 132.533 464.941 125C464.941 117.467 466.208 111 468.741 105.6C471.341 100.133 474.908 95.9667 479.441 93.1C483.974 90.2333 489.141 88.8 494.941 88.8C500.741 88.8 505.908 90.2333 510.441 93.1C514.974 95.9667 518.508 100.133 521.041 105.6C523.641 111 524.941 117.467 524.941 125C524.941 132.533 523.641 139.033 521.041 144.5C518.508 149.9 514.974 154.033 510.441 156.9C505.908 159.767 500.741 161.2 494.941 161.2ZM494.941 147.5C499.208 147.5 502.541 145.667 504.941 142C507.408 138.333 508.641 132.667 508.641 125C508.641 117.333 507.408 111.667 504.941 108C502.541 104.333 499.208 102.5 494.941 102.5C490.741 102.5 487.408 104.333 484.941 108C482.541 111.667 481.341 117.333 481.341 125C481.341 132.667 482.541 138.333 484.941 142C487.408 145.667 490.741 147.5 494.941 147.5Z" fill="black"/>
<defs>
<filter id="filter0_dd" x="0" y="0" width="814" height="264" filterUnits="userSpaceOnUse" color-interpolation-filters="sRGB">
<feFlood flood-opacity="0" result="BackgroundImageFix"/>
<feColorMatrix in="SourceAlpha" type="matrix" values="0 0 0 0 0 0 0 0 0 0 0 0 0 0 0 0 0 0 127 0"/>
<feOffset dy="4"/>
<feGaussianBlur stdDeviation="2"/>
<feColorMatrix type="matrix" values="0 0 0 0 0 0 0 0 0 0 0 0 0 0 0 0 0 0 0.25 0"/>
<feBlend mode="normal" in2="BackgroundImageFix" result="effect1_dropShadow"/>
<feColorMatrix in="SourceAlpha" type="matrix" values="0 0 0 0 0 0 0 0 0 0 0 0 0 0 0 0 0 0 127 0"/>
<feOffset dy="4"/>
<feGaussianBlur stdDeviation="2"/>
<feColorMatrix type="matrix" values="0 0 0 0 0 0 0 0 0 0 0 0 0 0 0 0 0 0 0.25 0"/>
<feBlend mode="normal" in2="effect1_dropShadow" result="effect2_dropShadow"/>
<feBlend mode="normal" in="SourceGraphic" in2="effect2_dropShadow" result="shape"/>
</filter>
</defs>
</svg>
