<svg width="808" height="258" viewBox="0 0 808 258" fill="none" xmlns="http://www.w3.org/2000/svg">
<g filter="url(#filter0_dddi)">
<rect x="4" width="800" height="250" rx="20" fill="white"/>
</g>
<g filter="url(#filter1_i)">
<path d="M604 0H784C795.046 0 804 8.9543 804 20V230C804 241.046 795.046 250 784 250H604V0Z" fill="#00852E"/>
</g>
<path d="M643.252 136L638.527 129.175H638.247H633.312V136H627.642V111.5H638.247C640.417 111.5 642.296 111.862 643.882 112.585C645.492 113.308 646.729 114.335 647.592 115.665C648.456 116.995 648.887 118.57 648.887 120.39C648.887 122.21 648.444 123.785 647.557 125.115C646.694 126.422 645.457 127.425 643.847 128.125L649.342 136H643.252ZM643.147 120.39C643.147 119.013 642.704 117.963 641.817 117.24C640.931 116.493 639.636 116.12 637.932 116.12H633.312V124.66H637.932C639.636 124.66 640.931 124.287 641.817 123.54C642.704 122.793 643.147 121.743 643.147 120.39ZM672.35 131.45V136H653.38V111.5H671.895V116.05H659.015V121.37H670.39V125.78H659.015V131.45H672.35ZM676.861 111.5H687.991C690.651 111.5 692.996 112.013 695.026 113.04C697.079 114.043 698.666 115.467 699.786 117.31C700.929 119.153 701.501 121.3 701.501 123.75C701.501 126.2 700.929 128.347 699.786 130.19C698.666 132.033 697.079 133.468 695.026 134.495C692.996 135.498 690.651 136 687.991 136H676.861V111.5ZM687.711 131.345C690.161 131.345 692.109 130.668 693.556 129.315C695.026 127.938 695.761 126.083 695.761 123.75C695.761 121.417 695.026 119.573 693.556 118.22C692.109 116.843 690.161 116.155 687.711 116.155H682.531V131.345H687.711ZM724.747 131.45V136H705.777V111.5H724.292V116.05H711.412V121.37H722.787V125.78H711.412V131.45H724.747ZM748.229 131.45V136H729.259V111.5H747.774V116.05H734.894V121.37H746.269V125.78H734.894V131.45H748.229ZM775.035 136L775 121.3L767.79 133.41H765.235L758.06 121.615V136H752.74V111.5H757.43L766.6 126.725L775.63 111.5H780.285L780.355 136H775.035Z" fill="white"/>
<path d="M214.97 99.75C214.697 95.0448 209.101 91.368 197.909 88.563C198.285 87.738 198.497 86.88 198.5 85.989V66.75H198.453C197.469 50.723 131.793 50.25 124.25 50.25C116.707 50.25 51.0312 50.723 50.0468 66.75H50V67.1075V85.9972C50.0137 91.2222 56.7568 95.3115 66.7887 98.3558C66.6513 98.8122 66.5688 99.277 66.5413 99.75H66.5V100.107V118.964C55.6925 121.747 50.2943 125.372 50.0275 130H50V130.358V149.247C50.0082 152.885 53.289 155.971 58.657 158.542C58.4535 159.101 58.327 159.67 58.2913 160.253H58.25V160.61V179.5C58.272 188.646 78.8668 194.325 101.75 196.976C101.917 197.009 102.071 197.078 102.25 197.078C102.302 197.078 102.346 197.051 102.399 197.048C106.81 197.546 111.292 197.933 115.728 198.211C115.821 198.222 115.904 198.266 116 198.266C116.052 198.266 116.093 198.238 116.143 198.236C121.775 198.577 127.316 198.75 132.5 198.75C137.684 198.75 143.225 198.577 148.857 198.233C148.907 198.236 148.951 198.263 149 198.263C149.096 198.263 149.179 198.217 149.272 198.208C153.708 197.931 158.19 197.546 162.602 197.045C162.654 197.045 162.698 197.072 162.75 197.072C162.929 197.072 163.083 197.004 163.25 196.971C186.133 194.32 206.725 188.638 206.75 179.489V160.25H206.706C206.514 156.879 203.64 154.065 197.964 151.714C198.31 150.919 198.5 150.094 198.5 149.239V131.265C208.372 128.229 214.986 124.167 215 118.989V99.75H214.97ZM192.703 150.133L191.765 150.955C190.322 152.228 187.915 153.512 184.75 154.75V141.638C188.02 140.499 190.803 139.237 193 137.854V149.233C193 149.517 192.895 149.819 192.703 150.133ZM131.196 162.912C130.795 162.923 130.391 162.929 129.987 162.937C129.005 162.956 127.998 162.961 127.003 162.97V149.233C127.759 149.225 128.515 149.214 129.271 149.2C129.417 149.198 129.563 149.195 129.709 149.192C132.478 149.14 135.247 149.055 138.003 148.928V162.659C137.414 162.689 136.823 162.717 136.226 162.741C134.571 162.816 132.899 162.871 131.196 162.912ZM119.187 162.95C117.928 162.928 116.674 162.898 115.428 162.86C115.274 162.854 115.12 162.849 114.966 162.843C113.467 162.794 111.979 162.73 110.503 162.659V148.931C113.258 149.06 116.028 149.146 118.797 149.195C118.942 149.198 119.088 149.201 119.231 149.203C119.987 149.217 120.744 149.228 121.5 149.236V162.981C120.966 162.975 120.433 162.975 119.902 162.967C119.66 162.961 119.426 162.953 119.187 162.95ZM69.5168 156.68C69.426 156.653 69.3407 156.628 69.25 156.604V143.318C71.8185 144.011 74.5795 144.644 77.5 145.218V158.641C74.9755 158.105 72.6462 157.541 70.526 156.964C70.1905 156.868 69.844 156.777 69.5168 156.68ZM127.481 179.453C128.237 179.467 128.994 179.478 129.75 179.486V193.234C125.95 193.198 122.281 193.088 118.75 192.914V179.184C121.506 179.313 124.275 179.398 127.044 179.448C127.19 179.448 127.335 179.451 127.481 179.453ZM137.956 179.445C140.725 179.393 143.494 179.307 146.25 179.181V192.912C142.719 193.085 139.05 193.195 135.25 193.231V179.484C136.006 179.475 136.763 179.464 137.519 179.451C137.665 179.451 137.81 179.448 137.956 179.445ZM160 178.202V191.859C157.357 192.136 154.607 192.381 151.75 192.582V178.868C154.538 178.686 157.294 178.463 160 178.202ZM165.5 177.608C168.335 177.267 171.088 176.879 173.75 176.447V189.95C171.16 190.406 168.407 190.827 165.5 191.21V177.608ZM179.25 175.466C182.171 174.891 184.932 174.258 187.5 173.565V186.851C185.05 187.557 182.292 188.242 179.25 188.889V175.466ZM85.75 175.466V188.889C82.7085 188.242 79.9503 187.557 77.5 186.851V173.565C80.0685 174.258 82.8295 174.894 85.75 175.466ZM91.25 176.45C93.912 176.882 96.6647 177.27 99.5 177.611V191.212C96.5933 190.83 93.8405 190.409 91.25 189.953V176.45ZM105 178.202C107.706 178.463 110.461 178.686 113.25 178.87V192.585C110.393 192.384 107.643 192.139 105 191.861V178.202ZM98.1772 161.757C97.8967 161.729 97.619 161.699 97.3413 161.672C97.1432 161.652 96.948 161.628 96.75 161.608V147.955C99.456 148.216 102.211 148.439 105 148.623V162.326C102.69 162.161 100.407 161.974 98.1772 161.757ZM91.25 147.358V160.959C88.3433 160.577 85.5905 160.156 83 159.7V146.197C85.662 146.629 88.4147 147.02 91.25 147.358ZM145.331 162.197C144.727 162.244 144.116 162.29 143.5 162.334V148.62C146.288 148.436 149.044 148.216 151.75 147.952V161.608C150.05 161.787 148.313 161.955 146.528 162.101C146.129 162.136 145.73 162.167 145.331 162.197ZM157.25 160.959V147.358C160.085 147.017 162.838 146.629 165.5 146.197V159.7C162.91 160.156 160.157 160.58 157.25 160.959ZM171 145.216C173.921 144.641 176.682 144.008 179.25 143.315V156.601C176.8 157.308 174.041 157.992 171 158.639V145.216ZM133.394 132.654C131.326 132.602 129.304 132.522 127.319 132.425C127.212 132.42 127.104 132.414 127 132.412V118.681C129.756 118.81 132.525 118.896 135.294 118.945C135.44 118.948 135.586 118.951 135.729 118.953C136.485 118.967 137.241 118.978 137.997 118.986V132.717C136.658 132.703 135.308 132.698 134.001 132.668C133.801 132.662 133.595 132.659 133.394 132.654ZM69.25 93.3535V80.0683C71.8185 80.7613 74.5795 81.3938 77.5 81.9685V95.3913C77.1618 95.3198 76.8125 95.2482 76.4825 95.1768C75.0195 94.855 73.5923 94.5195 72.2283 94.1647C71.1888 93.898 70.2015 93.6257 69.25 93.3535ZM119.231 85.9533C119.987 85.967 120.744 85.978 121.5 85.9862V99.717C117.799 99.6813 114.119 99.585 110.5 99.4035V85.6838C113.256 85.813 116.025 85.8983 118.794 85.9478C118.94 85.9478 119.085 85.9505 119.231 85.9533ZM129.706 85.945C132.475 85.8927 135.244 85.8075 138 85.681V99.4007C137.533 99.4227 137.084 99.4557 136.614 99.4777C136.576 99.4805 136.537 99.4805 136.496 99.4832C134.65 99.5658 132.77 99.6263 130.864 99.6702C130.567 99.6785 130.27 99.6813 129.973 99.6895C128.994 99.7088 127.993 99.7115 127 99.7225V85.9862C127.756 85.978 128.513 85.967 129.269 85.9533C129.415 85.9505 129.56 85.9478 129.706 85.945ZM192.37 87.3255L192.293 87.309L191.292 88.0873C189.84 89.2175 187.61 90.3615 184.75 91.467V78.3853C188.02 77.2467 190.803 75.9845 193 74.6012V85.9808C193 86.3988 192.78 86.8498 192.37 87.3255ZM157.25 97.693V84.108C160.085 83.767 162.838 83.3792 165.5 82.9475V96.428C162.893 96.89 160.148 97.3135 157.25 97.693ZM171 95.3692V81.9685C173.921 81.3938 176.682 80.7613 179.25 80.0683V93.3232C176.786 94.041 174.011 94.7257 171 95.3692ZM151.75 84.702V98.342C149.093 98.6225 146.343 98.8673 143.5 99.0708V85.3703C146.288 85.186 149.044 84.9632 151.75 84.702ZM96.75 98.3475V84.702C99.456 84.9632 102.211 85.186 105 85.3703V99.0598C102.201 98.859 99.4395 98.6307 96.75 98.3475ZM91.25 84.108V97.6958C90.7055 97.6243 90.139 97.5665 89.6 97.4923C89.248 97.4428 88.9125 97.3905 88.566 97.341C86.9765 97.1128 85.4227 96.868 83.8993 96.6122C83.594 96.56 83.2998 96.505 83 96.4528V82.9502C85.662 83.3792 88.4147 83.7698 91.25 84.108ZM120.818 132.032C120.447 132.005 120.073 131.977 119.704 131.95C117.944 131.812 116.226 131.661 114.548 131.493C114.188 131.457 113.827 131.419 113.47 131.383C113.396 131.375 113.324 131.364 113.25 131.358V117.702C115.956 117.963 118.712 118.186 121.5 118.37V132.076C121.277 132.06 121.041 132.049 120.818 132.032ZM102.649 129.978C101.56 129.805 100.537 129.618 99.5 129.436V115.95C102.162 116.382 104.915 116.77 107.75 117.111V130.712C106.067 130.489 104.42 130.259 102.839 130.011C102.775 129.997 102.712 129.986 102.649 129.978ZM94 114.966V128.367C90.9613 127.715 88.2057 127.022 85.75 126.301V113.065C88.3185 113.758 91.0795 114.394 94 114.966ZM80.25 111.385V124.451C75.927 122.781 73.1385 121.076 72.231 119.558L72.0468 119.25C72.0303 119.165 72.0028 119.074 72 118.989V107.601C74.1973 108.984 76.9802 110.247 80.25 111.385ZM146.206 118.945C148.975 118.893 151.744 118.808 154.5 118.681V132.398C150.886 132.577 147.213 132.676 143.5 132.714V118.986C144.256 118.978 145.013 118.967 145.769 118.953C145.915 118.951 146.06 118.948 146.206 118.945ZM181.744 129.497C180.537 129.706 179.319 129.912 178.068 130.102C177.35 130.212 176.615 130.316 175.878 130.421C175.183 130.52 174.459 130.605 173.753 130.696V117.108C176.588 116.767 179.341 116.379 182.003 115.947V129.45C181.915 129.466 181.829 129.483 181.744 129.497ZM163.124 131.845C162.098 131.931 161.039 131.986 160 132.06V118.37C162.788 118.186 165.544 117.966 168.25 117.702V131.345C166.652 131.512 165.057 131.68 163.416 131.818C163.316 131.826 163.223 131.837 163.124 131.845ZM194.551 126.689C193.182 127.071 191.732 127.429 190.253 127.778C189.568 127.938 188.869 128.097 188.154 128.251C187.943 128.298 187.717 128.339 187.503 128.386V114.968C190.423 114.394 193.184 113.761 195.753 113.068V126.354C195.357 126.464 194.958 126.576 194.551 126.689ZM209.47 99.9288C209.217 101.796 204.984 104.279 197.43 106.614C187.701 109.62 172.477 112.372 153.183 113.225C152.196 113.266 151.211 113.307 150.204 113.34C149.382 113.368 148.557 113.393 147.718 113.415C145.441 113.464 143.132 113.5 140.75 113.5C138.368 113.5 136.059 113.464 133.782 113.412C132.945 113.393 132.12 113.365 131.296 113.338C130.286 113.307 129.302 113.264 128.317 113.222C109.023 112.37 93.7965 109.617 84.0697 106.611C76.576 104.296 72.352 101.832 72.0385 99.9727C72.0522 99.9205 72.0522 99.8765 72.0853 99.8105C72.2723 99.8572 72.4813 99.8957 72.671 99.9425C73.7463 100.198 74.849 100.446 75.971 100.682C81.4353 101.859 87.4907 102.824 93.9422 103.562C93.9642 103.562 93.9808 103.572 94 103.572C94.0055 103.572 94.011 103.57 94.0137 103.57C98.4082 104.07 102.968 104.464 107.648 104.741C107.684 104.741 107.714 104.761 107.75 104.761C107.769 104.761 107.783 104.75 107.802 104.75C111.171 104.948 114.584 105.093 118.038 105.17C120.152 105.223 122.229 105.25 124.25 105.25C125.694 105.25 127.173 105.233 128.667 105.206C148.648 104.898 167.166 102.522 180.053 98.8398C180.647 98.672 181.227 98.4988 181.799 98.3255C182.148 98.2183 182.506 98.1137 182.844 98.0065C183.84 97.6875 184.794 97.3602 185.715 97.0192C185.875 96.9588 186.026 96.8983 186.186 96.8377C186.964 96.5435 187.712 96.2383 188.427 95.9275C188.633 95.8368 188.845 95.7487 189.046 95.658C189.807 95.3142 190.544 94.9622 191.226 94.5965C191.534 94.4342 191.801 94.2665 192.09 94.1015C192.42 93.9117 192.75 93.7192 193.055 93.524C193.228 93.414 193.434 93.3095 193.6 93.1995C205.911 95.8698 209.156 98.7903 209.47 99.9288ZM124.25 55.75C169.595 55.75 192.53 62.889 192.959 66.9865C192.626 68.8455 188.405 71.3013 180.93 73.6112C171.201 76.617 155.977 79.3698 136.683 80.2222C135.696 80.2635 134.711 80.3048 133.704 80.3377C132.882 80.3652 132.057 80.39 131.218 80.412C128.941 80.4643 126.632 80.5 124.25 80.5C121.868 80.5 119.559 80.4643 117.282 80.412C116.445 80.3928 115.62 80.3652 114.796 80.3377C113.786 80.3075 112.802 80.2635 111.817 80.2222C92.5233 79.3698 77.2965 76.617 67.5697 73.6112C60.0925 71.3013 55.874 68.8455 55.5413 66.9865C55.9703 62.889 78.9052 55.75 124.25 55.75ZM55.5 85.989V74.6012C57.6972 75.9845 60.4803 77.2467 63.75 78.3853V91.5522C58.4012 89.5475 55.5055 87.5373 55.5 85.989ZM68.821 124.046C68.8622 124.09 68.9255 124.129 68.9667 124.173C72.7315 127.973 80.5278 130.96 90.2325 133.187C90.4552 133.24 90.6917 133.289 90.9172 133.341C91.6295 133.501 92.3527 133.657 93.0843 133.809C101.997 135.706 112.637 137.078 124.228 137.758C124.236 137.758 124.242 137.76 124.247 137.76C124.253 137.76 124.256 137.758 124.258 137.758C127.982 137.975 131.79 138.126 135.679 138.192C137.4 138.228 139.094 138.25 140.75 138.25C142.647 138.25 144.594 138.228 146.575 138.181C150.172 138.107 153.716 137.958 157.212 137.755C157.225 137.755 157.236 137.763 157.25 137.763C157.275 137.763 157.294 137.75 157.319 137.75C168.94 137.065 179.844 135.679 189.065 133.685C187.068 134.73 184.335 135.811 180.93 136.864C170.659 140.037 154.255 142.928 133.408 143.599C132.789 143.618 132.178 143.64 131.551 143.657C130.878 143.673 130.193 143.684 129.508 143.698C127.778 143.725 126.037 143.75 124.25 143.75C121.868 143.75 119.559 143.714 117.282 143.662C116.445 143.643 115.62 143.615 114.796 143.588C113.786 143.558 112.802 143.513 111.817 143.472C92.5233 142.62 77.2965 139.867 67.5697 136.861C60.0072 134.524 55.775 132.038 55.5302 130.171C55.8355 129.136 58.6157 126.549 68.821 124.046ZM55.5 149.239V137.851C57.6972 139.234 60.4803 140.497 63.75 141.635V154.75L62.1797 154.139L62.1467 154.173C57.8292 152.382 55.5055 150.625 55.5 149.239ZM63.75 179.489V168.101C65.9473 169.484 68.7302 170.747 72 171.885V185.052C66.6512 183.048 63.7555 181.037 63.75 179.489ZM193 185.052V171.888C196.27 170.749 199.053 169.487 201.25 168.104V179.484C201.247 181.032 198.349 183.045 193 185.052ZM201.214 160.462C200.915 162.324 196.691 164.793 189.18 167.114C179.451 170.12 164.227 172.873 144.933 173.725C143.946 173.766 142.961 173.808 141.954 173.84C141.132 173.868 140.307 173.893 139.468 173.915C137.191 173.964 134.882 174 132.5 174C130.118 174 127.806 173.964 125.526 173.912C124.698 173.893 123.882 173.865 123.065 173.838C122.05 173.805 121.06 173.763 120.067 173.722C100.773 172.87 85.5493 170.117 75.8197 167.111C68.546 164.864 64.344 162.478 63.816 160.635C64.6355 160.921 65.4852 161.199 66.357 161.471C66.445 161.498 66.533 161.526 66.621 161.551C67.3635 161.779 68.1225 161.999 68.9008 162.214C69.195 162.296 69.492 162.379 69.7917 162.458C70.2318 162.577 70.6828 162.689 71.1337 162.805C81.1493 165.37 93.934 167.188 107.736 168.005C107.742 168.005 107.744 168.008 107.75 168.008C107.753 168.008 107.756 168.005 107.758 168.005C112.021 168.258 116.374 168.415 120.774 168.467C121.946 168.489 123.109 168.5 124.25 168.5C125.765 168.5 127.316 168.481 128.887 168.453C132.899 168.387 136.859 168.239 140.731 168.008C140.739 168.008 140.744 168.013 140.753 168.013C140.766 168.013 140.775 168.005 140.788 168.005C145.505 167.722 150.07 167.318 154.456 166.814C154.473 166.814 154.486 166.822 154.503 166.822C154.563 166.822 154.613 166.792 154.673 166.787C159.557 166.223 164.188 165.53 168.486 164.724C169.372 164.562 170.244 164.394 171.107 164.221C171.3 164.183 171.492 164.144 171.685 164.103C179.805 162.436 186.835 160.277 191.658 157.602C191.922 157.459 192.17 157.31 192.42 157.164C192.725 156.983 193.017 156.799 193.3 156.612C193.564 156.441 193.869 156.276 194.111 156.103C199.54 158.039 201.035 159.771 201.214 160.462ZM201.25 124.552V111.388C204.52 110.25 207.303 108.987 209.5 107.604V118.983C209.497 120.532 206.599 122.545 201.25 124.552Z" fill="#00852E"/>
<path d="M272.716 68V110H262.996V75.8H254.596V68H272.716ZM298.012 110.72C294.532 110.72 291.432 109.86 288.712 108.14C285.992 106.42 283.852 103.94 282.292 100.7C280.772 97.42 280.012 93.52 280.012 89C280.012 84.48 280.772 80.6 282.292 77.36C283.852 74.08 285.992 71.58 288.712 69.86C291.432 68.14 294.532 67.28 298.012 67.28C301.492 67.28 304.592 68.14 307.312 69.86C310.032 71.58 312.152 74.08 313.672 77.36C315.232 80.6 316.012 84.48 316.012 89C316.012 93.52 315.232 97.42 313.672 100.7C312.152 103.94 310.032 106.42 307.312 108.14C304.592 109.86 301.492 110.72 298.012 110.72ZM298.012 102.5C300.572 102.5 302.572 101.4 304.012 99.2C305.492 97 306.232 93.6 306.232 89C306.232 84.4 305.492 81 304.012 78.8C302.572 76.6 300.572 75.5 298.012 75.5C295.492 75.5 293.492 76.6 292.012 78.8C290.572 81 289.852 84.4 289.852 89C289.852 93.6 290.572 97 292.012 99.2C293.492 101.4 295.492 102.5 298.012 102.5ZM330.455 90.68C327.375 90.68 324.855 89.64 322.895 87.56C320.975 85.44 320.015 82.62 320.015 79.1C320.015 75.58 320.975 72.78 322.895 70.7C324.855 68.58 327.375 67.52 330.455 67.52C333.535 67.52 336.035 68.58 337.955 70.7C339.875 72.78 340.835 75.58 340.835 79.1C340.835 82.62 339.875 85.44 337.955 87.56C336.035 89.64 333.535 90.68 330.455 90.68ZM355.475 68H362.615L333.935 110H326.795L355.475 68ZM330.455 85.76C331.815 85.76 332.875 85.2 333.635 84.08C334.435 82.96 334.835 81.3 334.835 79.1C334.835 76.9 334.435 75.24 333.635 74.12C332.875 73 331.815 72.44 330.455 72.44C329.135 72.44 328.075 73.02 327.275 74.18C326.475 75.3 326.075 76.94 326.075 79.1C326.075 81.26 326.475 82.92 327.275 84.08C328.075 85.2 329.135 85.76 330.455 85.76ZM358.955 110.48C356.955 110.48 355.155 110.02 353.555 109.1C351.995 108.14 350.775 106.78 349.895 105.02C349.015 103.26 348.575 101.22 348.575 98.9C348.575 96.58 349.015 94.54 349.895 92.78C350.775 91.02 351.995 89.68 353.555 88.76C355.155 87.8 356.955 87.32 358.955 87.32C362.035 87.32 364.535 88.38 366.455 90.5C368.415 92.58 369.395 95.38 369.395 98.9C369.395 102.42 368.415 105.24 366.455 107.36C364.535 109.44 362.035 110.48 358.955 110.48ZM358.955 105.56C360.315 105.56 361.375 105 362.135 103.88C362.935 102.72 363.335 101.06 363.335 98.9C363.335 96.74 362.935 95.1 362.135 93.98C361.375 92.82 360.315 92.24 358.955 92.24C357.635 92.24 356.575 92.8 355.775 93.92C354.975 95.04 354.575 96.7 354.575 98.9C354.575 101.1 354.975 102.76 355.775 103.88C356.575 105 357.635 105.56 358.955 105.56ZM407.684 110.48C404.284 110.48 401.224 109.78 398.504 108.38C395.824 106.94 393.724 104.96 392.204 102.44C390.684 99.92 389.924 97.06 389.924 93.86C389.924 90.66 390.684 87.8 392.204 85.28C393.724 82.76 395.824 80.8 398.504 79.4C401.224 77.96 404.284 77.24 407.684 77.24C411.084 77.24 414.124 77.96 416.804 79.4C419.484 80.8 421.584 82.76 423.104 85.28C424.624 87.8 425.384 90.66 425.384 93.86C425.384 97.06 424.624 99.92 423.104 102.44C421.584 104.96 419.484 106.94 416.804 108.38C414.124 109.78 411.084 110.48 407.684 110.48ZM407.684 102.8C410.084 102.8 412.044 102 413.564 100.4C415.124 98.76 415.904 96.58 415.904 93.86C415.904 91.14 415.124 88.98 413.564 87.38C412.044 85.74 410.084 84.92 407.684 84.92C405.284 84.92 403.304 85.74 401.744 87.38C400.184 88.98 399.404 91.14 399.404 93.86C399.404 96.58 400.184 98.76 401.744 100.4C403.304 102 405.284 102.8 407.684 102.8ZM441.9 78.44H450.18V85.64H442.14V110H432.78V85.64H427.8V78.44H432.78V77C432.78 73.32 433.86 70.4 436.02 68.24C438.22 66.08 441.3 65 445.26 65C446.66 65 447.98 65.16 449.22 65.48C450.5 65.76 451.56 66.18 452.4 66.74L449.94 73.52C448.86 72.76 447.6 72.38 446.16 72.38C443.32 72.38 441.9 73.94 441.9 77.06V78.44ZM465.103 78.44H473.383V85.64H465.343V110H455.983V85.64H451.003V78.44H455.983V77C455.983 73.32 457.063 70.4 459.223 68.24C461.423 66.08 464.503 65 468.463 65C469.863 65 471.183 65.16 472.423 65.48C473.703 65.76 474.763 66.18 475.603 66.74L473.143 73.52C472.063 72.76 470.803 72.38 469.363 72.38C466.523 72.38 465.103 73.94 465.103 77.06V78.44ZM508.059 77.24C513.059 77.24 516.899 78.44 519.579 80.84C522.259 83.2 523.599 86.78 523.599 91.58V110H514.839V105.98C513.079 108.98 509.799 110.48 504.999 110.48C502.519 110.48 500.359 110.06 498.519 109.22C496.719 108.38 495.339 107.22 494.379 105.74C493.419 104.26 492.939 102.58 492.939 100.7C492.939 97.7 494.059 95.34 496.299 93.62C498.579 91.9 502.079 91.04 506.799 91.04H514.239C514.239 89 513.619 87.44 512.379 86.36C511.139 85.24 509.279 84.68 506.799 84.68C505.079 84.68 503.379 84.96 501.699 85.52C500.059 86.04 498.659 86.76 497.499 87.68L494.139 81.14C495.899 79.9 497.999 78.94 500.439 78.26C502.919 77.58 505.459 77.24 508.059 77.24ZM507.339 104.18C508.939 104.18 510.359 103.82 511.599 103.1C512.839 102.34 513.719 101.24 514.239 99.8V96.5H507.819C503.979 96.5 502.059 97.76 502.059 100.28C502.059 101.48 502.519 102.44 503.439 103.16C504.399 103.84 505.699 104.18 507.339 104.18ZM552.89 108.44C551.97 109.12 550.83 109.64 549.47 110C548.15 110.32 546.75 110.48 545.27 110.48C541.43 110.48 538.45 109.5 536.33 107.54C534.25 105.58 533.21 102.7 533.21 98.9V85.64H528.23V78.44H533.21V70.58H542.57V78.44H550.61V85.64H542.57V98.78C542.57 100.14 542.91 101.2 543.59 101.96C544.31 102.68 545.31 103.04 546.59 103.04C548.07 103.04 549.33 102.64 550.37 101.84L552.89 108.44ZM374.532 183L364.392 168.42L354.432 183H343.272L358.812 161.64L344.052 141H355.092L364.752 154.62L374.232 141H384.732L370.092 161.28L385.752 183H374.532ZM409.247 168.12V183H399.527V168L383.267 141H393.587L404.807 159.66L416.027 141H425.567L409.247 168.12ZM463.654 175.08V183H426.934V176.7L449.974 148.92H427.414V141H462.754V147.3L439.774 175.08H463.654Z" fill="black"/>
<defs>
<filter id="filter0_dddi" x="0" y="0" width="808" height="258" filterUnits="userSpaceOnUse" color-interpolation-filters="sRGB">
<feFlood flood-opacity="0" result="BackgroundImageFix"/>
<feColorMatrix in="SourceAlpha" type="matrix" values="0 0 0 0 0 0 0 0 0 0 0 0 0 0 0 0 0 0 127 0"/>
<feOffset dy="4"/>
<feGaussianBlur stdDeviation="2"/>
<feColorMatrix type="matrix" values="0 0 0 0 0 0 0 0 0 0 0 0 0 0 0 0 0 0 0.25 0"/>
<feBlend mode="normal" in2="BackgroundImageFix" result="effect1_dropShadow"/>
<feColorMatrix in="SourceAlpha" type="matrix" values="0 0 0 0 0 0 0 0 0 0 0 0 0 0 0 0 0 0 127 0"/>
<feOffset dy="4"/>
<feGaussianBlur stdDeviation="2"/>
<feColorMatrix type="matrix" values="0 0 0 0 0 0 0 0 0 0 0 0 0 0 0 0 0 0 0.25 0"/>
<feBlend mode="normal" in2="effect1_dropShadow" result="effect2_dropShadow"/>
<feColorMatrix in="SourceAlpha" type="matrix" values="0 0 0 0 0 0 0 0 0 0 0 0 0 0 0 0 0 0 127 0"/>
<feOffset dy="4"/>
<feGaussianBlur stdDeviation="2"/>
<feColorMatrix type="matrix" values="0 0 0 0 0 0 0 0 0 0 0 0 0 0 0 0 0 0 0.25 0"/>
<feBlend mode="normal" in2="effect2_dropShadow" result="effect3_dropShadow"/>
<feBlend mode="normal" in="SourceGraphic" in2="effect3_dropShadow" result="shape"/>
<feColorMatrix in="SourceAlpha" type="matrix" values="0 0 0 0 0 0 0 0 0 0 0 0 0 0 0 0 0 0 127 0" result="hardAlpha"/>
<feOffset dy="4"/>
<feGaussianBlur stdDeviation="2"/>
<feComposite in2="hardAlpha" operator="arithmetic" k2="-1" k3="1"/>
<feColorMatrix type="matrix" values="0 0 0 0 0 0 0 0 0 0 0 0 0 0 0 0 0 0 0.25 0"/>
<feBlend mode="normal" in2="shape" result="effect4_innerShadow"/>
</filter>
<filter id="filter1_i" x="604" y="0" width="200" height="254" filterUnits="userSpaceOnUse" color-interpolation-filters="sRGB">
<feFlood flood-opacity="0" result="BackgroundImageFix"/>
<feBlend mode="normal" in="SourceGraphic" in2="BackgroundImageFix" result="shape"/>
<feColorMatrix in="SourceAlpha" type="matrix" values="0 0 0 0 0 0 0 0 0 0 0 0 0 0 0 0 0 0 127 0" result="hardAlpha"/>
<feOffset dy="4"/>
<feGaussianBlur stdDeviation="2"/>
<feComposite in2="hardAlpha" operator="arithmetic" k2="-1" k3="1"/>
<feColorMatrix type="matrix" values="0 0 0 0 0 0 0 0 0 0 0 0 0 0 0 0 0 0 0.25 0"/>
<feBlend mode="normal" in2="shape" result="effect1_innerShadow"/>
</filter>
</defs>
</svg>
