<svg width="814" height="264" viewBox="0 0 814 264" fill="none" xmlns="http://www.w3.org/2000/svg">
<g filter="url(#filter0_dd)">
<rect x="7" y="3" width="800" height="250" rx="20" fill="white"/>
<rect x="5.5" y="1.5" width="803" height="253" rx="21.5" stroke="black" stroke-width="3"/>
</g>
<path d="M607 3H787C798.046 3 807 11.9543 807 23V233C807 244.046 798.046 253 787 253H607V3Z" fill="#00852E"/>
<path d="M646.252 139L641.527 132.175H641.247H636.312V139H630.642V114.5H641.247C643.417 114.5 645.296 114.862 646.882 115.585C648.492 116.308 649.729 117.335 650.592 118.665C651.456 119.995 651.887 121.57 651.887 123.39C651.887 125.21 651.444 126.785 650.557 128.115C649.694 129.422 648.457 130.425 646.847 131.125L652.342 139H646.252ZM646.147 123.39C646.147 122.013 645.704 120.963 644.817 120.24C643.931 119.493 642.636 119.12 640.932 119.12H636.312V127.66H640.932C642.636 127.66 643.931 127.287 644.817 126.54C645.704 125.793 646.147 124.743 646.147 123.39ZM675.35 134.45V139H656.38V114.5H674.895V119.05H662.015V124.37H673.39V128.78H662.015V134.45H675.35ZM679.861 114.5H690.991C693.651 114.5 695.996 115.013 698.026 116.04C700.079 117.043 701.666 118.467 702.786 120.31C703.929 122.153 704.501 124.3 704.501 126.75C704.501 129.2 703.929 131.347 702.786 133.19C701.666 135.033 700.079 136.468 698.026 137.495C695.996 138.498 693.651 139 690.991 139H679.861V114.5ZM690.711 134.345C693.161 134.345 695.109 133.668 696.556 132.315C698.026 130.938 698.761 129.083 698.761 126.75C698.761 124.417 698.026 122.573 696.556 121.22C695.109 119.843 693.161 119.155 690.711 119.155H685.531V134.345H690.711ZM727.747 134.45V139H708.777V114.5H727.292V119.05H714.412V124.37H725.787V128.78H714.412V134.45H727.747ZM751.229 134.45V139H732.259V114.5H750.774V119.05H737.894V124.37H749.269V128.78H737.894V134.45H751.229ZM778.035 139L778 124.3L770.79 136.41H768.235L761.06 124.615V139H755.74V114.5H760.43L769.6 129.725L778.63 114.5H783.285L783.355 139H778.035Z" fill="white"/>
<path d="M217.97 102.75C217.697 98.0448 212.101 94.368 200.909 91.563C201.285 90.738 201.497 89.88 201.5 88.989V69.75H201.453C200.469 53.723 134.793 53.25 127.25 53.25C119.707 53.25 54.0313 53.723 53.0468 69.75H53V70.1075V88.9972C53.0137 94.2222 59.7568 98.3115 69.7888 101.356C69.6513 101.812 69.5687 102.277 69.5412 102.75H69.5V103.107V121.964C58.6925 124.747 53.2943 128.372 53.0275 133H53V133.358V152.247C53.0083 155.886 56.289 158.971 61.657 161.542C61.4535 162.101 61.327 162.67 61.2913 163.253H61.25V163.61V182.5C61.272 191.646 81.8668 197.325 104.75 199.976C104.917 200.009 105.071 200.078 105.25 200.078C105.302 200.078 105.346 200.051 105.399 200.048C109.81 200.546 114.292 200.933 118.728 201.211C118.821 201.222 118.904 201.266 119 201.266C119.052 201.266 119.094 201.238 119.143 201.236C124.775 201.577 130.316 201.75 135.5 201.75C140.684 201.75 146.225 201.577 151.857 201.233C151.907 201.236 151.951 201.263 152 201.263C152.096 201.263 152.179 201.217 152.272 201.208C156.708 200.931 161.19 200.546 165.601 200.045C165.654 200.045 165.698 200.072 165.75 200.072C165.929 200.072 166.083 200.004 166.25 199.971C189.133 197.32 209.725 191.638 209.75 182.489V163.25H209.706C209.514 159.879 206.64 157.065 200.964 154.714C201.31 153.919 201.5 153.094 201.5 152.239V134.265C211.372 131.229 217.986 127.167 218 121.989V102.75H217.97ZM195.703 153.133L194.765 153.955C193.321 155.228 190.915 156.513 187.75 157.75V144.638C191.02 143.499 193.803 142.237 196 140.854V152.233C196 152.517 195.895 152.819 195.703 153.133ZM134.196 165.912C133.795 165.923 133.391 165.929 132.987 165.937C132.005 165.956 130.998 165.961 130.003 165.97V152.233C130.759 152.225 131.515 152.214 132.272 152.2C132.417 152.198 132.563 152.195 132.709 152.192C135.478 152.14 138.247 152.055 141.003 151.928V165.659C140.414 165.689 139.823 165.717 139.226 165.741C137.571 165.816 135.899 165.871 134.196 165.912ZM122.187 165.95C120.928 165.928 119.674 165.898 118.428 165.86C118.274 165.854 118.12 165.849 117.966 165.843C116.467 165.794 114.979 165.73 113.503 165.659V151.931C116.258 152.06 119.028 152.145 121.797 152.195C121.943 152.198 122.088 152.201 122.231 152.203C122.987 152.217 123.744 152.228 124.5 152.236V165.981C123.966 165.975 123.433 165.975 122.902 165.967C122.66 165.961 122.427 165.953 122.187 165.95ZM72.5168 159.68C72.426 159.653 72.3407 159.628 72.25 159.603V146.318C74.8185 147.011 77.5795 147.644 80.5 148.219V161.641C77.9755 161.105 75.6463 160.541 73.526 159.964C73.1905 159.868 72.844 159.777 72.5168 159.68ZM130.481 182.453C131.237 182.467 131.994 182.478 132.75 182.486V196.233C128.95 196.198 125.281 196.088 121.75 195.914V182.184C124.505 182.313 127.275 182.398 130.044 182.448C130.19 182.448 130.335 182.451 130.481 182.453ZM140.956 182.445C143.725 182.393 146.495 182.307 149.25 182.181V195.912C145.719 196.085 142.05 196.195 138.25 196.231V182.483C139.006 182.475 139.763 182.464 140.519 182.45C140.665 182.45 140.81 182.448 140.956 182.445ZM163 181.202V194.858C160.357 195.136 157.607 195.381 154.75 195.582V181.868C157.539 181.686 160.294 181.463 163 181.202ZM168.5 180.608C171.335 180.267 174.088 179.879 176.75 179.447V192.95C174.16 193.406 171.407 193.827 168.5 194.209V180.608ZM182.25 178.466C185.171 177.891 187.931 177.258 190.5 176.565V189.851C188.05 190.558 185.291 191.242 182.25 191.889V178.466ZM88.75 178.466V191.889C85.7085 191.242 82.9502 190.558 80.5 189.851V176.565C83.0685 177.258 85.8295 177.894 88.75 178.466ZM94.25 179.45C96.912 179.882 99.6647 180.27 102.5 180.611V194.212C99.5932 193.83 96.8405 193.409 94.25 192.953V179.45ZM108 181.202C110.706 181.463 113.461 181.686 116.25 181.87V195.584C113.393 195.384 110.643 195.139 108 194.861V181.202ZM101.177 164.757C100.897 164.73 100.619 164.699 100.341 164.672C100.143 164.652 99.948 164.628 99.75 164.608V150.955C102.456 151.216 105.211 151.439 108 151.623V165.326C105.69 165.161 103.407 164.974 101.177 164.757ZM94.25 150.358V163.959C91.3432 163.577 88.5905 163.156 86 162.7V149.197C88.662 149.629 91.4147 150.02 94.25 150.358ZM148.332 165.197C147.727 165.244 147.116 165.29 146.5 165.334V151.62C149.289 151.436 152.044 151.216 154.75 150.952V164.608C153.051 164.787 151.313 164.955 149.528 165.101C149.129 165.137 148.73 165.167 148.332 165.197ZM160.25 163.959V150.358C163.085 150.017 165.838 149.629 168.5 149.197V162.7C165.91 163.156 163.157 163.58 160.25 163.959ZM174 148.216C176.921 147.641 179.681 147.008 182.25 146.315V159.601C179.8 160.308 177.041 160.992 174 161.639V148.216ZM136.394 135.654C134.326 135.602 132.304 135.522 130.319 135.425C130.212 135.42 130.104 135.414 130 135.412V121.681C132.755 121.81 135.525 121.895 138.294 121.945C138.44 121.948 138.585 121.95 138.728 121.953C139.485 121.967 140.241 121.978 140.997 121.986V135.717C139.658 135.703 138.308 135.698 137.001 135.668C136.801 135.662 136.595 135.659 136.394 135.654ZM72.25 96.3535V83.0683C74.8185 83.7613 77.5795 84.3938 80.5 84.9685V98.3913C80.1617 98.3198 79.8125 98.2482 79.4825 98.1767C78.0195 97.855 76.5923 97.5195 75.2283 97.1647C74.1888 96.898 73.2015 96.6257 72.25 96.3535ZM122.231 88.9532C122.987 88.967 123.744 88.978 124.5 88.9862V102.717C120.799 102.681 117.119 102.585 113.5 102.404V88.6838C116.255 88.813 119.025 88.8982 121.794 88.9477C121.94 88.9477 122.085 88.9505 122.231 88.9532ZM132.706 88.945C135.475 88.8927 138.245 88.8075 141 88.681V102.401C140.532 102.423 140.084 102.456 139.614 102.478C139.576 102.48 139.537 102.48 139.496 102.483C137.65 102.566 135.77 102.626 133.864 102.67C133.567 102.679 133.27 102.681 132.973 102.69C131.994 102.709 130.993 102.711 130 102.722V88.9862C130.756 88.978 131.513 88.967 132.269 88.9532C132.415 88.9505 132.56 88.9477 132.706 88.945ZM195.37 90.3255L195.293 90.309L194.292 91.0873C192.84 92.2175 190.61 93.3615 187.75 94.467V81.3852C191.02 80.2467 193.803 78.9845 196 77.6012V88.9808C196 89.3988 195.78 89.8498 195.37 90.3255ZM160.25 100.693V87.108C163.085 86.767 165.838 86.3793 168.5 85.9475V99.428C165.893 99.89 163.149 100.314 160.25 100.693ZM174 98.3692V84.9685C176.921 84.3938 179.681 83.7613 182.25 83.0683V96.3233C179.786 97.041 177.011 97.7257 174 98.3692ZM154.75 87.702V101.342C152.093 101.623 149.344 101.867 146.5 102.071V88.3702C149.289 88.186 152.044 87.9632 154.75 87.702ZM99.75 101.347V87.702C102.456 87.9632 105.211 88.186 108 88.3702V102.06C105.2 101.859 102.439 101.631 99.75 101.347ZM94.25 87.108V100.696C93.7055 100.624 93.139 100.567 92.6 100.492C92.248 100.443 91.9125 100.391 91.566 100.341C89.9765 100.113 88.4227 99.868 86.8992 99.6122C86.594 99.56 86.2997 99.505 86 99.4528V85.9502C88.662 86.3792 91.4147 86.7698 94.25 87.108ZM123.818 135.032C123.447 135.005 123.073 134.977 122.704 134.95C120.944 134.812 119.226 134.661 117.548 134.493C117.188 134.457 116.827 134.419 116.47 134.383C116.396 134.375 116.324 134.364 116.25 134.358V120.702C118.956 120.963 121.711 121.186 124.5 121.37V135.076C124.277 135.06 124.041 135.049 123.818 135.032ZM105.649 132.978C104.56 132.805 103.537 132.618 102.5 132.436V118.95C105.162 119.382 107.915 119.77 110.75 120.111V133.712C109.067 133.489 107.42 133.259 105.839 133.011C105.775 132.997 105.712 132.986 105.649 132.978ZM97 117.966V131.367C93.9612 130.715 91.2058 130.022 88.75 129.301V116.065C91.3185 116.758 94.0795 117.394 97 117.966ZM83.25 114.385V127.451C78.927 125.781 76.1385 124.076 75.231 122.558L75.0468 122.25C75.0303 122.165 75.0028 122.074 75 121.989V110.601C77.1973 111.984 79.9802 113.247 83.25 114.385ZM149.206 121.945C151.975 121.893 154.745 121.808 157.5 121.681V135.398C153.886 135.577 150.213 135.676 146.5 135.714V121.986C147.256 121.978 148.013 121.967 148.769 121.953C148.915 121.95 149.06 121.948 149.206 121.945ZM184.744 132.497C183.537 132.706 182.319 132.912 181.067 133.102C180.35 133.212 179.615 133.316 178.878 133.421C178.183 133.52 177.459 133.605 176.753 133.696V120.108C179.588 119.767 182.341 119.379 185.003 118.947V132.45C184.915 132.466 184.83 132.483 184.744 132.497ZM166.124 134.845C165.098 134.931 164.039 134.986 163 135.06V121.37C165.789 121.186 168.544 120.966 171.25 120.702V134.345C169.652 134.512 168.057 134.68 166.416 134.818C166.317 134.826 166.223 134.837 166.124 134.845ZM197.551 129.689C196.181 130.071 194.732 130.429 193.253 130.778C192.568 130.937 191.869 131.097 191.154 131.251C190.943 131.298 190.717 131.339 190.503 131.386V117.969C193.423 117.394 196.184 116.761 198.753 116.068V129.353C198.357 129.463 197.958 129.576 197.551 129.689ZM212.47 102.929C212.217 104.796 207.985 107.279 200.43 109.614C190.701 112.62 175.477 115.372 156.183 116.225C155.195 116.266 154.211 116.307 153.204 116.34C152.382 116.368 151.557 116.393 150.719 116.415C148.442 116.464 146.131 116.5 143.75 116.5C141.369 116.5 139.058 116.464 136.781 116.412C135.945 116.393 135.121 116.365 134.296 116.338C133.286 116.307 132.302 116.264 131.317 116.222C112.023 115.37 96.7965 112.617 87.0697 109.611C79.576 107.296 75.352 104.832 75.0385 102.973C75.0522 102.92 75.0523 102.876 75.0853 102.81C75.2723 102.857 75.4813 102.896 75.671 102.942C76.7463 103.198 77.849 103.446 78.971 103.682C84.4353 104.859 90.4908 105.824 96.9423 106.561C96.9643 106.561 96.9807 106.572 97 106.572C97.0055 106.572 97.011 106.57 97.0137 106.57C101.408 107.07 105.968 107.464 110.648 107.741C110.684 107.741 110.714 107.761 110.75 107.761C110.769 107.761 110.783 107.75 110.802 107.75C114.171 107.948 117.584 108.093 121.038 108.17C123.152 108.223 125.229 108.25 127.25 108.25C128.694 108.25 130.173 108.233 131.667 108.206C151.648 107.898 170.166 105.522 183.053 101.84C183.647 101.672 184.227 101.499 184.799 101.326C185.148 101.218 185.506 101.114 185.844 101.006C186.84 100.687 187.794 100.36 188.715 100.019C188.875 99.9587 189.026 99.8982 189.185 99.8377C189.964 99.5435 190.712 99.2383 191.427 98.9275C191.633 98.8368 191.845 98.7487 192.046 98.658C192.807 98.3142 193.544 97.9622 194.226 97.5965C194.534 97.4342 194.801 97.2665 195.09 97.1015C195.42 96.9117 195.75 96.7193 196.055 96.524C196.228 96.414 196.434 96.3095 196.599 96.1995C208.911 98.8698 212.156 101.79 212.47 102.929ZM127.25 58.75C172.595 58.75 195.53 65.889 195.959 69.9865C195.626 71.8455 191.405 74.3012 183.93 76.6112C174.201 79.617 158.977 82.3698 139.683 83.2223C138.695 83.2635 137.711 83.3047 136.704 83.3377C135.882 83.3652 135.057 83.39 134.219 83.412C131.942 83.4643 129.631 83.5 127.25 83.5C124.869 83.5 122.558 83.4643 120.281 83.412C119.445 83.3928 118.621 83.3652 117.796 83.3377C116.786 83.3075 115.802 83.2635 114.817 83.2223C95.5233 82.3698 80.2965 79.617 70.5697 76.6112C63.0925 74.3012 58.874 71.8455 58.5413 69.9865C58.9703 65.889 81.9052 58.75 127.25 58.75ZM58.5 88.989V77.6012C60.6973 78.9845 63.4802 80.2467 66.75 81.3852V94.5522C61.4012 92.5475 58.5055 90.5373 58.5 88.989ZM71.821 127.046C71.8622 127.09 71.9255 127.129 71.9667 127.173C75.7315 130.973 83.5278 133.96 93.2325 136.187C93.4553 136.24 93.6917 136.289 93.9172 136.341C94.6295 136.501 95.3527 136.657 96.0842 136.809C104.997 138.706 115.637 140.078 127.228 140.758C127.236 140.758 127.242 140.76 127.247 140.76C127.253 140.76 127.256 140.758 127.258 140.758C130.982 140.975 134.791 141.126 138.679 141.192C140.401 141.228 142.095 141.25 143.75 141.25C145.647 141.25 147.595 141.228 149.575 141.181C153.171 141.107 156.716 140.958 160.212 140.755C160.225 140.755 160.236 140.763 160.25 140.763C160.275 140.763 160.294 140.75 160.319 140.75C171.94 140.065 182.844 138.679 192.065 136.685C190.068 137.73 187.335 138.811 183.93 139.864C173.659 143.037 157.255 145.928 136.407 146.599C135.789 146.618 135.178 146.64 134.551 146.656C133.878 146.673 133.193 146.684 132.508 146.698C130.778 146.725 129.037 146.75 127.25 146.75C124.869 146.75 122.558 146.714 120.281 146.662C119.445 146.643 118.621 146.615 117.796 146.588C116.786 146.558 115.802 146.513 114.817 146.472C95.5233 145.62 80.2965 142.867 70.5697 139.861C63.0072 137.524 58.775 135.038 58.5302 133.171C58.8355 132.137 61.6157 129.549 71.821 127.046ZM58.5 152.239V140.851C60.6973 142.234 63.4802 143.497 66.75 144.635V157.75L65.1797 157.139L65.1467 157.173C60.8292 155.382 58.5055 153.625 58.5 152.239ZM66.75 182.489V171.101C68.9473 172.484 71.7302 173.747 75 174.885V188.052C69.6512 186.048 66.7555 184.037 66.75 182.489ZM196 188.052V174.888C199.27 173.749 202.053 172.487 204.25 171.104V182.483C204.247 184.032 201.349 186.045 196 188.052ZM204.214 163.462C203.914 165.323 199.691 167.793 192.18 170.114C182.451 173.12 167.227 175.873 147.933 176.725C146.945 176.766 145.961 176.808 144.954 176.841C144.132 176.868 143.307 176.893 142.469 176.915C140.192 176.964 137.881 177 135.5 177C133.119 177 130.806 176.964 128.526 176.912C127.698 176.893 126.882 176.865 126.065 176.838C125.05 176.805 124.06 176.763 123.067 176.722C103.773 175.87 88.5493 173.117 78.8197 170.111C71.546 167.864 67.344 165.477 66.816 163.635C67.6355 163.921 68.4852 164.199 69.357 164.471C69.445 164.499 69.533 164.526 69.621 164.551C70.3635 164.779 71.1225 164.999 71.9008 165.214C72.195 165.296 72.492 165.379 72.7918 165.458C73.2318 165.577 73.6827 165.689 74.1337 165.805C84.1492 168.371 96.934 170.188 110.736 171.005C110.742 171.005 110.744 171.008 110.75 171.008C110.753 171.008 110.756 171.005 110.758 171.005C115.021 171.258 119.374 171.415 123.774 171.467C124.946 171.489 126.109 171.5 127.25 171.5C128.765 171.5 130.316 171.481 131.887 171.453C135.899 171.387 139.859 171.239 143.731 171.008C143.739 171.008 143.744 171.013 143.753 171.013C143.766 171.013 143.775 171.005 143.788 171.005C148.505 170.722 153.07 170.318 157.456 169.814C157.473 169.814 157.486 169.822 157.503 169.822C157.563 169.822 157.613 169.792 157.673 169.787C162.557 169.223 167.188 168.53 171.486 167.724C172.372 167.562 173.244 167.394 174.107 167.221C174.3 167.183 174.492 167.144 174.685 167.103C182.806 165.436 189.835 163.277 194.658 160.602C194.922 160.459 195.17 160.31 195.42 160.164C195.725 159.983 196.017 159.799 196.3 159.612C196.564 159.441 196.869 159.276 197.111 159.103C202.539 161.039 204.035 162.771 204.214 163.462ZM204.25 127.552V114.388C207.52 113.25 210.303 111.987 212.5 110.604V121.983C212.497 123.532 209.599 125.545 204.25 127.552Z" fill="#00852E"/>
<path d="M275.716 71V113H265.996V78.8H257.596V71H275.716ZM301.012 113.72C297.532 113.72 294.432 112.86 291.712 111.14C288.992 109.42 286.852 106.94 285.292 103.7C283.772 100.42 283.012 96.52 283.012 92C283.012 87.48 283.772 83.6 285.292 80.36C286.852 77.08 288.992 74.58 291.712 72.86C294.432 71.14 297.532 70.28 301.012 70.28C304.492 70.28 307.592 71.14 310.312 72.86C313.032 74.58 315.152 77.08 316.672 80.36C318.232 83.6 319.012 87.48 319.012 92C319.012 96.52 318.232 100.42 316.672 103.7C315.152 106.94 313.032 109.42 310.312 111.14C307.592 112.86 304.492 113.72 301.012 113.72ZM301.012 105.5C303.572 105.5 305.572 104.4 307.012 102.2C308.492 100 309.232 96.6 309.232 92C309.232 87.4 308.492 84 307.012 81.8C305.572 79.6 303.572 78.5 301.012 78.5C298.492 78.5 296.492 79.6 295.012 81.8C293.572 84 292.852 87.4 292.852 92C292.852 96.6 293.572 100 295.012 102.2C296.492 104.4 298.492 105.5 301.012 105.5ZM333.455 93.68C330.375 93.68 327.855 92.64 325.895 90.56C323.975 88.44 323.015 85.62 323.015 82.1C323.015 78.58 323.975 75.78 325.895 73.7C327.855 71.58 330.375 70.52 333.455 70.52C336.535 70.52 339.035 71.58 340.955 73.7C342.875 75.78 343.835 78.58 343.835 82.1C343.835 85.62 342.875 88.44 340.955 90.56C339.035 92.64 336.535 93.68 333.455 93.68ZM358.475 71H365.615L336.935 113H329.795L358.475 71ZM333.455 88.76C334.815 88.76 335.875 88.2 336.635 87.08C337.435 85.96 337.835 84.3 337.835 82.1C337.835 79.9 337.435 78.24 336.635 77.12C335.875 76 334.815 75.44 333.455 75.44C332.135 75.44 331.075 76.02 330.275 77.18C329.475 78.3 329.075 79.94 329.075 82.1C329.075 84.26 329.475 85.92 330.275 87.08C331.075 88.2 332.135 88.76 333.455 88.76ZM361.955 113.48C359.955 113.48 358.155 113.02 356.555 112.1C354.995 111.14 353.775 109.78 352.895 108.02C352.015 106.26 351.575 104.22 351.575 101.9C351.575 99.58 352.015 97.54 352.895 95.78C353.775 94.02 354.995 92.68 356.555 91.76C358.155 90.8 359.955 90.32 361.955 90.32C365.035 90.32 367.535 91.38 369.455 93.5C371.415 95.58 372.395 98.38 372.395 101.9C372.395 105.42 371.415 108.24 369.455 110.36C367.535 112.44 365.035 113.48 361.955 113.48ZM361.955 108.56C363.315 108.56 364.375 108 365.135 106.88C365.935 105.72 366.335 104.06 366.335 101.9C366.335 99.74 365.935 98.1 365.135 96.98C364.375 95.82 363.315 95.24 361.955 95.24C360.635 95.24 359.575 95.8 358.775 96.92C357.975 98.04 357.575 99.7 357.575 101.9C357.575 104.1 357.975 105.76 358.775 106.88C359.575 108 360.635 108.56 361.955 108.56ZM410.684 113.48C407.284 113.48 404.224 112.78 401.504 111.38C398.824 109.94 396.724 107.96 395.204 105.44C393.684 102.92 392.924 100.06 392.924 96.86C392.924 93.66 393.684 90.8 395.204 88.28C396.724 85.76 398.824 83.8 401.504 82.4C404.224 80.96 407.284 80.24 410.684 80.24C414.084 80.24 417.124 80.96 419.804 82.4C422.484 83.8 424.584 85.76 426.104 88.28C427.624 90.8 428.384 93.66 428.384 96.86C428.384 100.06 427.624 102.92 426.104 105.44C424.584 107.96 422.484 109.94 419.804 111.38C417.124 112.78 414.084 113.48 410.684 113.48ZM410.684 105.8C413.084 105.8 415.044 105 416.564 103.4C418.124 101.76 418.904 99.58 418.904 96.86C418.904 94.14 418.124 91.98 416.564 90.38C415.044 88.74 413.084 87.92 410.684 87.92C408.284 87.92 406.304 88.74 404.744 90.38C403.184 91.98 402.404 94.14 402.404 96.86C402.404 99.58 403.184 101.76 404.744 103.4C406.304 105 408.284 105.8 410.684 105.8ZM444.9 81.44H453.18V88.64H445.14V113H435.78V88.64H430.8V81.44H435.78V80C435.78 76.32 436.86 73.4 439.02 71.24C441.22 69.08 444.3 68 448.26 68C449.66 68 450.98 68.16 452.22 68.48C453.5 68.76 454.56 69.18 455.4 69.74L452.94 76.52C451.86 75.76 450.6 75.38 449.16 75.38C446.32 75.38 444.9 76.94 444.9 80.06V81.44ZM468.103 81.44H476.383V88.64H468.343V113H458.983V88.64H454.003V81.44H458.983V80C458.983 76.32 460.063 73.4 462.223 71.24C464.423 69.08 467.503 68 471.463 68C472.863 68 474.183 68.16 475.423 68.48C476.703 68.76 477.763 69.18 478.603 69.74L476.143 76.52C475.063 75.76 473.803 75.38 472.363 75.38C469.523 75.38 468.103 76.94 468.103 80.06V81.44ZM511.059 80.24C516.059 80.24 519.899 81.44 522.579 83.84C525.259 86.2 526.599 89.78 526.599 94.58V113H517.839V108.98C516.079 111.98 512.799 113.48 507.999 113.48C505.519 113.48 503.359 113.06 501.519 112.22C499.719 111.38 498.339 110.22 497.379 108.74C496.419 107.26 495.939 105.58 495.939 103.7C495.939 100.7 497.059 98.34 499.299 96.62C501.579 94.9 505.079 94.04 509.799 94.04H517.239C517.239 92 516.619 90.44 515.379 89.36C514.139 88.24 512.279 87.68 509.799 87.68C508.079 87.68 506.379 87.96 504.699 88.52C503.059 89.04 501.659 89.76 500.499 90.68L497.139 84.14C498.899 82.9 500.999 81.94 503.439 81.26C505.919 80.58 508.459 80.24 511.059 80.24ZM510.339 107.18C511.939 107.18 513.359 106.82 514.599 106.1C515.839 105.34 516.719 104.24 517.239 102.8V99.5H510.819C506.979 99.5 505.059 100.76 505.059 103.28C505.059 104.48 505.519 105.44 506.439 106.16C507.399 106.84 508.699 107.18 510.339 107.18ZM555.89 111.44C554.97 112.12 553.83 112.64 552.47 113C551.15 113.32 549.75 113.48 548.27 113.48C544.43 113.48 541.45 112.5 539.33 110.54C537.25 108.58 536.21 105.7 536.21 101.9V88.64H531.23V81.44H536.21V73.58H545.57V81.44H553.61V88.64H545.57V101.78C545.57 103.14 545.91 104.2 546.59 104.96C547.31 105.68 548.31 106.04 549.59 106.04C551.07 106.04 552.33 105.64 553.37 104.84L555.89 111.44ZM377.532 186L367.392 171.42L357.432 186H346.272L361.812 164.64L347.052 144H358.092L367.752 157.62L377.232 144H387.732L373.092 164.28L388.752 186H377.532ZM412.247 171.12V186H402.527V171L386.267 144H396.587L407.807 162.66L419.027 144H428.567L412.247 171.12ZM466.654 178.08V186H429.934V179.7L452.974 151.92H430.414V144H465.754V150.3L442.774 178.08H466.654Z" fill="black"/>
<defs>
<filter id="filter0_dd" x="0" y="0" width="814" height="264" filterUnits="userSpaceOnUse" color-interpolation-filters="sRGB">
<feFlood flood-opacity="0" result="BackgroundImageFix"/>
<feColorMatrix in="SourceAlpha" type="matrix" values="0 0 0 0 0 0 0 0 0 0 0 0 0 0 0 0 0 0 127 0"/>
<feOffset dy="4"/>
<feGaussianBlur stdDeviation="2"/>
<feColorMatrix type="matrix" values="0 0 0 0 0 0 0 0 0 0 0 0 0 0 0 0 0 0 0.25 0"/>
<feBlend mode="normal" in2="BackgroundImageFix" result="effect1_dropShadow"/>
<feColorMatrix in="SourceAlpha" type="matrix" values="0 0 0 0 0 0 0 0 0 0 0 0 0 0 0 0 0 0 127 0"/>
<feOffset dy="4"/>
<feGaussianBlur stdDeviation="2"/>
<feColorMatrix type="matrix" values="0 0 0 0 0 0 0 0 0 0 0 0 0 0 0 0 0 0 0.25 0"/>
<feBlend mode="normal" in2="effect1_dropShadow" result="effect2_dropShadow"/>
<feBlend mode="normal" in="SourceGraphic" in2="effect2_dropShadow" result="shape"/>
</filter>
</defs>
</svg>
